<?xml version="1.0" encoding="utf-8"?>
<!-- Generator: Adobe Illustrator 24.3.0, SVG Export Plug-In . SVG Version: 6.00 Build 0)  -->
<svg version="1.1" xmlns="http://www.w3.org/2000/svg" xmlns:xlink="http://www.w3.org/1999/xlink" x="0px" y="0px"
	 viewBox="0 0 453.8 118.1" style="enable-background:new 0 0 453.8 118.1;" xml:space="preserve">
<style type="text/css">
	.st0{fill:#EB1000;}
</style>
<g id="Layer_1">
	<g>
		<g>
			<path class="st0" d="M195.9,78.7L191,93.8c-0.2,0.5-0.5,0.8-1.1,0.8h-11.8c-0.7,0-0.9-0.4-0.8-1l20.4-58.8c0.4-1.1,0.8-2.3,1-6.2
				c0-0.4,0.3-0.7,0.6-0.7h16.3c0.5,0,0.7,0.1,0.8,0.6l23.1,65.2c0.2,0.5,0.1,0.9-0.5,0.9h-13.3c-0.6,0-0.9-0.2-1.1-0.7l-5.2-15.2
				H195.9z M215.7,66c-2-6.7-6.1-19.1-8.1-26.3h-0.1c-1.6,6.8-5.3,18-8,26.3H215.7z"/>
			<path class="st0" d="M241.1,69.8c0-14.6,10.9-26.8,29.6-26.8c0.8,0,1.8,0.1,3.4,0.2V23.1c0-0.5,0.3-0.7,0.7-0.7h12.8
				c0.5,0,0.6,0.2,0.6,0.6v60.3c0,2.3,0.1,5.4,0.4,7.4c0,0.5-0.1,0.7-0.7,0.9c-7,3-13.8,4.1-20.1,4.1
				C252.8,95.7,241.1,87.1,241.1,69.8z M274.1,55.3c-1-0.4-2.3-0.5-3.8-0.5c-7.9,0-14.6,4.8-14.6,14.3c0,10.1,5.8,14.5,13.6,14.5
				c1.7,0,3.4-0.1,4.8-0.6V55.3z"/>
			<path class="st0" d="M346.6,69.1c0,16-10.4,26.6-25.1,26.6c-17.4,0-25.2-13.2-25.2-26.3c0-14.5,9.7-26.4,25.4-26.4
				C338.2,43,346.6,55.3,346.6,69.1z M310.7,69.2c0,9,4.2,14.7,11,14.7c5.9,0,10.4-5.1,10.4-14.5c0-8-3.3-14.6-11-14.6
				C315.2,54.8,310.7,60.1,310.7,69.2z"/>
			<path class="st0" d="M368.1,22.4c0.8,0,1,0.1,1,0.8v20.9c2.7-0.7,5.5-1.1,8.6-1.1c15,0,24.5,10.6,24.5,24.3
				c0,19.1-15.1,28.4-30.6,28.4c-5.4,0-10.8-0.7-16-2.3c-0.3-0.1-0.6-0.6-0.6-1V23.1c0-0.5,0.2-0.7,0.7-0.7H368.1z M375.1,55
				c-3.3,0-4.7,0.5-6,0.8v27.6c1.2,0.3,2.5,0.4,3.8,0.4c7.7,0,14.8-4.7,14.8-15.3C387.6,59.3,382.2,55,375.1,55z"/>
			<path class="st0" d="M422,73c0.5,5.8,4.6,10.6,14.6,10.6c4.6,0,8.7-0.7,12.5-2.3c0.3-0.2,0.6-0.1,0.6,0.5v9.7
				c0,0.7-0.2,1-0.7,1.2c-4.1,1.9-8.6,3-15.6,3c-19.2,0-25.9-13.2-25.9-25.8c0-14.1,8.7-26.9,24.7-26.9c15.4,0,21.5,11.9,21.5,22
				c0,3.2-0.2,5.7-0.5,6.8c-0.1,0.5-0.3,0.7-0.8,0.8c-1.3,0.2-5.2,0.4-10.5,0.4H422z M435.3,63.2c3.3,0,4.7-0.1,5.1-0.2
				c0-0.2,0-0.6,0-0.7c0-2.4-1.9-8.1-8.7-8.1c-6.4,0-9.2,4.8-9.8,9H435.3z"/>
		</g>
		<g>
			<g>
				<polygon class="st0" points="84.1,0 133.5,0 133.5,118.1 				"/>
			</g>
			<g>
				<polygon class="st0" points="49.4,0 0,0 0,118.1 				"/>
			</g>
			<g>
				<polygon class="st0" points="66.7,43.5 98.2,118.1 77.6,118.1 68.2,94.4 45.2,94.4 				"/>
			</g>
		</g>
	</g>
</g>
<g id="_x3C_Layer_x3E__1_">
</g>
</svg>
